<?xml version="1.0" encoding="utf-8" standalone="no"?>
<!DOCTYPE svg PUBLIC "-//W3C//DTD SVG 1.1//EN"
  "http://www.w3.org/Graphics/SVG/1.1/DTD/svg11.dtd">
<!-- Created with matplotlib (http://matplotlib.org/) -->
<svg height="432pt" version="1.1" viewBox="0 0 576 432" width="576pt" xmlns="http://www.w3.org/2000/svg" xmlns:xlink="http://www.w3.org/1999/xlink">
 <defs>
  <style type="text/css">
*{stroke-linecap:butt;stroke-linejoin:round;stroke-miterlimit:100000;}
  </style>
 </defs>
 <g id="figure_1">
  <g id="patch_1">
   <path d="M 0 432 
L 576 432 
L 576 0 
L 0 0 
z
" style="fill:#ffffff;"/>
  </g>
  <g id="axes_1">
   <g id="patch_2">
    <path d="M 72 388.8 
L 518.4 388.8 
L 518.4 43.2 
L 72 43.2 
z
" style="fill:#ffffff;"/>
   </g>
   <g id="line2d_1">
    <path clip-path="url(#p7ef08beaac)" d="M 507.9375 357.48864 
L 295.2 345.39264 
L 138.133333 314.77248 
L 99.9 282.56256 
L 80.266667 225.88416 
L 75.4875 171.072 
L 73.7856 133.53984 
L 72.650729 86.19264 
L 72.2232 60.96384 
L 72.066133 48.10752 
L 72.0279 45.2736 
L 72.008267 43.5456 
L 72.001786 43.2 
" style="fill:none;stroke:#56b4e9;stroke-dasharray:6.000000,6.000000;stroke-dashoffset:0.0;"/>
    <defs>
     <path d="M -0 3 
L 3 -3 
L -3 -3 
z
" id="mf30a1ceb16" style="stroke:#000000;stroke-linejoin:miter;stroke-width:0.5;"/>
    </defs>
    <g clip-path="url(#p7ef08beaac)">
     <use style="fill:#56b4e9;stroke:#000000;stroke-linejoin:miter;stroke-width:0.5;" x="507.9375" xlink:href="#mf30a1ceb16" y="357.48864"/>
     <use style="fill:#56b4e9;stroke:#000000;stroke-linejoin:miter;stroke-width:0.5;" x="295.2" xlink:href="#mf30a1ceb16" y="345.39264"/>
     <use style="fill:#56b4e9;stroke:#000000;stroke-linejoin:miter;stroke-width:0.5;" x="138.133333333" xlink:href="#mf30a1ceb16" y="314.77248"/>
     <use style="fill:#56b4e9;stroke:#000000;stroke-linejoin:miter;stroke-width:0.5;" x="99.9" xlink:href="#mf30a1ceb16" y="282.56256"/>
     <use style="fill:#56b4e9;stroke:#000000;stroke-linejoin:miter;stroke-width:0.5;" x="80.2666666667" xlink:href="#mf30a1ceb16" y="225.88416"/>
     <use style="fill:#56b4e9;stroke:#000000;stroke-linejoin:miter;stroke-width:0.5;" x="75.4875" xlink:href="#mf30a1ceb16" y="171.072"/>
     <use style="fill:#56b4e9;stroke:#000000;stroke-linejoin:miter;stroke-width:0.5;" x="73.7856" xlink:href="#mf30a1ceb16" y="133.53984"/>
     <use style="fill:#56b4e9;stroke:#000000;stroke-linejoin:miter;stroke-width:0.5;" x="72.650728863" xlink:href="#mf30a1ceb16" y="86.19264"/>
     <use style="fill:#56b4e9;stroke:#000000;stroke-linejoin:miter;stroke-width:0.5;" x="72.2232" xlink:href="#mf30a1ceb16" y="60.96384"/>
     <use style="fill:#56b4e9;stroke:#000000;stroke-linejoin:miter;stroke-width:0.5;" x="72.0661333333" xlink:href="#mf30a1ceb16" y="48.10752"/>
     <use style="fill:#56b4e9;stroke:#000000;stroke-linejoin:miter;stroke-width:0.5;" x="72.0279" xlink:href="#mf30a1ceb16" y="45.2736"/>
     <use style="fill:#56b4e9;stroke:#000000;stroke-linejoin:miter;stroke-width:0.5;" x="72.0082666667" xlink:href="#mf30a1ceb16" y="43.5456"/>
     <use style="fill:#56b4e9;stroke:#000000;stroke-linejoin:miter;stroke-width:0.5;" x="72.0017856" xlink:href="#mf30a1ceb16" y="43.2"/>
    </g>
   </g>
   <g id="line2d_2">
    <path clip-path="url(#p7ef08beaac)" d="M 507.9375 215.86176 
L 295.2 214.6176 
L 99.9 214.47936 
L 80.266667 218.21184 
L 73.7856 212.06016 
L 72.001786 214.89408 
" style="fill:none;stroke:#e69f00;stroke-dasharray:1.000000,3.000000;stroke-dashoffset:0.0;stroke-width:2.0;"/>
    <defs>
     <path d="M -3 3 
L 3 3 
L 3 -3 
L -3 -3 
z
" id="m73d716eb49" style="stroke:#000000;stroke-linejoin:miter;stroke-width:0.5;"/>
    </defs>
    <g clip-path="url(#p7ef08beaac)">
     <use style="fill:#e69f00;stroke:#000000;stroke-linejoin:miter;stroke-width:0.5;" x="507.9375" xlink:href="#m73d716eb49" y="215.86176"/>
     <use style="fill:#e69f00;stroke:#000000;stroke-linejoin:miter;stroke-width:0.5;" x="295.2" xlink:href="#m73d716eb49" y="214.6176"/>
     <use style="fill:#e69f00;stroke:#000000;stroke-linejoin:miter;stroke-width:0.5;" x="99.9" xlink:href="#m73d716eb49" y="214.47936"/>
     <use style="fill:#e69f00;stroke:#000000;stroke-linejoin:miter;stroke-width:0.5;" x="80.2666666667" xlink:href="#m73d716eb49" y="218.21184"/>
     <use style="fill:#e69f00;stroke:#000000;stroke-linejoin:miter;stroke-width:0.5;" x="73.7856" xlink:href="#m73d716eb49" y="212.06016"/>
     <use style="fill:#e69f00;stroke:#000000;stroke-linejoin:miter;stroke-width:0.5;" x="72.0017856" xlink:href="#m73d716eb49" y="214.89408"/>
    </g>
   </g>
   <g id="line2d_3">
    <path clip-path="url(#p7ef08beaac)" d="M 72 43.2 
L 72.53568 82.459032 
L 73.16064 112.430954 
L 73.87488 136.444474 
L 74.6784 156.284521 
L 75.5712 173.036136 
L 76.55328 187.413928 
L 77.62464 199.91542 
L 78.78528 210.901418 
L 80.0352 220.641911 
L 81.3744 229.34402 
L 82.80288 237.169905 
L 84.32064 244.248699 
L 85.92768 250.684733 
L 87.624 256.563359 
L 89.4096 261.95517 
L 91.28448 266.919118 
L 93.24864 271.504861 
L 95.34672 275.841553 
L 97.53408 279.859397 
L 99.85536 283.662569 
L 102.31056 287.25958 
L 104.89968 290.66026 
L 107.66736 293.925082 
L 110.56896 297.004982 
L 113.64912 299.952985 
L 116.95248 302.805934 
L 120.47904 305.555411 
L 124.2288 308.196637 
L 128.2464 310.754672 
L 132.57648 313.246397 
L 137.21904 315.660412 
L 142.26336 318.029073 
L 147.70944 320.336394 
L 153.60192 322.58732 
L 159.98544 324.784258 
L 166.90464 326.927842 
L 174.4488 329.02935 
L 182.66256 331.083977 
L 191.6352 333.09679 
L 201.456 335.069456 
L 212.25888 337.008882 
L 224.13312 338.910464 
L 237.168 340.76928 
L 251.54208 342.591229 
L 267.43392 344.377852 
L 285.02208 346.127779 
L 304.52976 347.841569 
L 326.2248 349.520404 
L 350.37504 351.162418 
L 377.3376 352.768978 
L 407.51424 354.340363 
L 441.396 355.877686 
L 479.47392 357.37854 
L 518.35536 358.714496 
L 518.35536 358.714496 
" style="fill:none;stroke:#0000ff;stroke-linecap:square;"/>
   </g>
   <g id="patch_3">
    <path d="M 72 43.2 
L 518.4 43.2 
" style="fill:none;stroke:#000000;stroke-linecap:square;stroke-linejoin:miter;"/>
   </g>
   <g id="patch_4">
    <path d="M 518.4 388.8 
L 518.4 43.2 
" style="fill:none;stroke:#000000;stroke-linecap:square;stroke-linejoin:miter;"/>
   </g>
   <g id="patch_5">
    <path d="M 72 388.8 
L 518.4 388.8 
" style="fill:none;stroke:#000000;stroke-linecap:square;stroke-linejoin:miter;"/>
   </g>
   <g id="patch_6">
    <path d="M 72 388.8 
L 72 43.2 
" style="fill:none;stroke:#000000;stroke-linecap:square;stroke-linejoin:miter;"/>
   </g>
   <g id="matplotlib.axis_1">
    <g id="xtick_1">
     <g id="line2d_4">
      <defs>
       <path d="M 0 0 
L 0 -4 
" id="m53a4466622" style="stroke:#000000;stroke-width:0.5;"/>
      </defs>
      <g>
       <use style="stroke:#000000;stroke-width:0.5;" x="72.0" xlink:href="#m53a4466622" y="388.8"/>
      </g>
     </g>
     <g id="line2d_5">
      <defs>
       <path d="M 0 0 
L 0 4 
" id="m3981346425" style="stroke:#000000;stroke-width:0.5;"/>
      </defs>
      <g>
       <use style="stroke:#000000;stroke-width:0.5;" x="72.0" xlink:href="#m3981346425" y="43.2"/>
      </g>
     </g>
     <g id="text_1">
      <!-- 0.00 -->
      <defs>
       <path d="M 31.78125 66.40625 
Q 24.171875 66.40625 20.328125 58.90625 
Q 16.5 51.421875 16.5 36.375 
Q 16.5 21.390625 20.328125 13.890625 
Q 24.171875 6.390625 31.78125 6.390625 
Q 39.453125 6.390625 43.28125 13.890625 
Q 47.125 21.390625 47.125 36.375 
Q 47.125 51.421875 43.28125 58.90625 
Q 39.453125 66.40625 31.78125 66.40625 
M 31.78125 74.21875 
Q 44.046875 74.21875 50.515625 64.515625 
Q 56.984375 54.828125 56.984375 36.375 
Q 56.984375 17.96875 50.515625 8.265625 
Q 44.046875 -1.421875 31.78125 -1.421875 
Q 19.53125 -1.421875 13.0625 8.265625 
Q 6.59375 17.96875 6.59375 36.375 
Q 6.59375 54.828125 13.0625 64.515625 
Q 19.53125 74.21875 31.78125 74.21875 
" id="BitstreamVeraSans-Roman-30"/>
       <path d="M 10.6875 12.40625 
L 21 12.40625 
L 21 0 
L 10.6875 0 
z
" id="BitstreamVeraSans-Roman-2e"/>
      </defs>
      <g transform="translate(58.640625 401.918125)scale(0.12 -0.12)">
       <use xlink:href="#BitstreamVeraSans-Roman-30"/>
       <use x="63.623046875" xlink:href="#BitstreamVeraSans-Roman-2e"/>
       <use x="95.41015625" xlink:href="#BitstreamVeraSans-Roman-30"/>
       <use x="159.033203125" xlink:href="#BitstreamVeraSans-Roman-30"/>
      </g>
     </g>
    </g>
    <g id="xtick_2">
     <g id="line2d_6">
      <g>
       <use style="stroke:#000000;stroke-width:0.5;" x="161.28" xlink:href="#m53a4466622" y="388.8"/>
      </g>
     </g>
     <g id="line2d_7">
      <g>
       <use style="stroke:#000000;stroke-width:0.5;" x="161.28" xlink:href="#m3981346425" y="43.2"/>
      </g>
     </g>
     <g id="text_2">
      <!-- 0.02 -->
      <defs>
       <path d="M 19.1875 8.296875 
L 53.609375 8.296875 
L 53.609375 0 
L 7.328125 0 
L 7.328125 8.296875 
Q 12.9375 14.109375 22.625 23.890625 
Q 32.328125 33.6875 34.8125 36.53125 
Q 39.546875 41.84375 41.421875 45.53125 
Q 43.3125 49.21875 43.3125 52.78125 
Q 43.3125 58.59375 39.234375 62.25 
Q 35.15625 65.921875 28.609375 65.921875 
Q 23.96875 65.921875 18.8125 64.3125 
Q 13.671875 62.703125 7.8125 59.421875 
L 7.8125 69.390625 
Q 13.765625 71.78125 18.9375 73 
Q 24.125 74.21875 28.421875 74.21875 
Q 39.75 74.21875 46.484375 68.546875 
Q 53.21875 62.890625 53.21875 53.421875 
Q 53.21875 48.921875 51.53125 44.890625 
Q 49.859375 40.875 45.40625 35.40625 
Q 44.1875 33.984375 37.640625 27.21875 
Q 31.109375 20.453125 19.1875 8.296875 
" id="BitstreamVeraSans-Roman-32"/>
      </defs>
      <g transform="translate(147.920625 401.918125)scale(0.12 -0.12)">
       <use xlink:href="#BitstreamVeraSans-Roman-30"/>
       <use x="63.623046875" xlink:href="#BitstreamVeraSans-Roman-2e"/>
       <use x="95.41015625" xlink:href="#BitstreamVeraSans-Roman-30"/>
       <use x="159.033203125" xlink:href="#BitstreamVeraSans-Roman-32"/>
      </g>
     </g>
    </g>
    <g id="xtick_3">
     <g id="line2d_8">
      <g>
       <use style="stroke:#000000;stroke-width:0.5;" x="250.56" xlink:href="#m53a4466622" y="388.8"/>
      </g>
     </g>
     <g id="line2d_9">
      <g>
       <use style="stroke:#000000;stroke-width:0.5;" x="250.56" xlink:href="#m3981346425" y="43.2"/>
      </g>
     </g>
     <g id="text_3">
      <!-- 0.04 -->
      <defs>
       <path d="M 37.796875 64.3125 
L 12.890625 25.390625 
L 37.796875 25.390625 
z
M 35.203125 72.90625 
L 47.609375 72.90625 
L 47.609375 25.390625 
L 58.015625 25.390625 
L 58.015625 17.1875 
L 47.609375 17.1875 
L 47.609375 0 
L 37.796875 0 
L 37.796875 17.1875 
L 4.890625 17.1875 
L 4.890625 26.703125 
z
" id="BitstreamVeraSans-Roman-34"/>
      </defs>
      <g transform="translate(237.200625 401.918125)scale(0.12 -0.12)">
       <use xlink:href="#BitstreamVeraSans-Roman-30"/>
       <use x="63.623046875" xlink:href="#BitstreamVeraSans-Roman-2e"/>
       <use x="95.41015625" xlink:href="#BitstreamVeraSans-Roman-30"/>
       <use x="159.033203125" xlink:href="#BitstreamVeraSans-Roman-34"/>
      </g>
     </g>
    </g>
    <g id="xtick_4">
     <g id="line2d_10">
      <g>
       <use style="stroke:#000000;stroke-width:0.5;" x="339.84" xlink:href="#m53a4466622" y="388.8"/>
      </g>
     </g>
     <g id="line2d_11">
      <g>
       <use style="stroke:#000000;stroke-width:0.5;" x="339.84" xlink:href="#m3981346425" y="43.2"/>
      </g>
     </g>
     <g id="text_4">
      <!-- 0.06 -->
      <defs>
       <path d="M 33.015625 40.375 
Q 26.375 40.375 22.484375 35.828125 
Q 18.609375 31.296875 18.609375 23.390625 
Q 18.609375 15.53125 22.484375 10.953125 
Q 26.375 6.390625 33.015625 6.390625 
Q 39.65625 6.390625 43.53125 10.953125 
Q 47.40625 15.53125 47.40625 23.390625 
Q 47.40625 31.296875 43.53125 35.828125 
Q 39.65625 40.375 33.015625 40.375 
M 52.59375 71.296875 
L 52.59375 62.3125 
Q 48.875 64.0625 45.09375 64.984375 
Q 41.3125 65.921875 37.59375 65.921875 
Q 27.828125 65.921875 22.671875 59.328125 
Q 17.53125 52.734375 16.796875 39.40625 
Q 19.671875 43.65625 24.015625 45.921875 
Q 28.375 48.1875 33.59375 48.1875 
Q 44.578125 48.1875 50.953125 41.515625 
Q 57.328125 34.859375 57.328125 23.390625 
Q 57.328125 12.15625 50.6875 5.359375 
Q 44.046875 -1.421875 33.015625 -1.421875 
Q 20.359375 -1.421875 13.671875 8.265625 
Q 6.984375 17.96875 6.984375 36.375 
Q 6.984375 53.65625 15.1875 63.9375 
Q 23.390625 74.21875 37.203125 74.21875 
Q 40.921875 74.21875 44.703125 73.484375 
Q 48.484375 72.75 52.59375 71.296875 
" id="BitstreamVeraSans-Roman-36"/>
      </defs>
      <g transform="translate(326.480625 401.918125)scale(0.12 -0.12)">
       <use xlink:href="#BitstreamVeraSans-Roman-30"/>
       <use x="63.623046875" xlink:href="#BitstreamVeraSans-Roman-2e"/>
       <use x="95.41015625" xlink:href="#BitstreamVeraSans-Roman-30"/>
       <use x="159.033203125" xlink:href="#BitstreamVeraSans-Roman-36"/>
      </g>
     </g>
    </g>
    <g id="xtick_5">
     <g id="line2d_12">
      <g>
       <use style="stroke:#000000;stroke-width:0.5;" x="429.12" xlink:href="#m53a4466622" y="388.8"/>
      </g>
     </g>
     <g id="line2d_13">
      <g>
       <use style="stroke:#000000;stroke-width:0.5;" x="429.12" xlink:href="#m3981346425" y="43.2"/>
      </g>
     </g>
     <g id="text_5">
      <!-- 0.08 -->
      <defs>
       <path d="M 31.78125 34.625 
Q 24.75 34.625 20.71875 30.859375 
Q 16.703125 27.09375 16.703125 20.515625 
Q 16.703125 13.921875 20.71875 10.15625 
Q 24.75 6.390625 31.78125 6.390625 
Q 38.8125 6.390625 42.859375 10.171875 
Q 46.921875 13.96875 46.921875 20.515625 
Q 46.921875 27.09375 42.890625 30.859375 
Q 38.875 34.625 31.78125 34.625 
M 21.921875 38.8125 
Q 15.578125 40.375 12.03125 44.71875 
Q 8.5 49.078125 8.5 55.328125 
Q 8.5 64.0625 14.71875 69.140625 
Q 20.953125 74.21875 31.78125 74.21875 
Q 42.671875 74.21875 48.875 69.140625 
Q 55.078125 64.0625 55.078125 55.328125 
Q 55.078125 49.078125 51.53125 44.71875 
Q 48 40.375 41.703125 38.8125 
Q 48.828125 37.15625 52.796875 32.3125 
Q 56.78125 27.484375 56.78125 20.515625 
Q 56.78125 9.90625 50.3125 4.234375 
Q 43.84375 -1.421875 31.78125 -1.421875 
Q 19.734375 -1.421875 13.25 4.234375 
Q 6.78125 9.90625 6.78125 20.515625 
Q 6.78125 27.484375 10.78125 32.3125 
Q 14.796875 37.15625 21.921875 38.8125 
M 18.3125 54.390625 
Q 18.3125 48.734375 21.84375 45.5625 
Q 25.390625 42.390625 31.78125 42.390625 
Q 38.140625 42.390625 41.71875 45.5625 
Q 45.3125 48.734375 45.3125 54.390625 
Q 45.3125 60.0625 41.71875 63.234375 
Q 38.140625 66.40625 31.78125 66.40625 
Q 25.390625 66.40625 21.84375 63.234375 
Q 18.3125 60.0625 18.3125 54.390625 
" id="BitstreamVeraSans-Roman-38"/>
      </defs>
      <g transform="translate(415.760625 401.918125)scale(0.12 -0.12)">
       <use xlink:href="#BitstreamVeraSans-Roman-30"/>
       <use x="63.623046875" xlink:href="#BitstreamVeraSans-Roman-2e"/>
       <use x="95.41015625" xlink:href="#BitstreamVeraSans-Roman-30"/>
       <use x="159.033203125" xlink:href="#BitstreamVeraSans-Roman-38"/>
      </g>
     </g>
    </g>
    <g id="xtick_6">
     <g id="line2d_14">
      <g>
       <use style="stroke:#000000;stroke-width:0.5;" x="518.4" xlink:href="#m53a4466622" y="388.8"/>
      </g>
     </g>
     <g id="line2d_15">
      <g>
       <use style="stroke:#000000;stroke-width:0.5;" x="518.4" xlink:href="#m3981346425" y="43.2"/>
      </g>
     </g>
     <g id="text_6">
      <!-- 0.10 -->
      <defs>
       <path d="M 12.40625 8.296875 
L 28.515625 8.296875 
L 28.515625 63.921875 
L 10.984375 60.40625 
L 10.984375 69.390625 
L 28.421875 72.90625 
L 38.28125 72.90625 
L 38.28125 8.296875 
L 54.390625 8.296875 
L 54.390625 0 
L 12.40625 0 
z
" id="BitstreamVeraSans-Roman-31"/>
      </defs>
      <g transform="translate(505.040625 401.918125)scale(0.12 -0.12)">
       <use xlink:href="#BitstreamVeraSans-Roman-30"/>
       <use x="63.623046875" xlink:href="#BitstreamVeraSans-Roman-2e"/>
       <use x="95.41015625" xlink:href="#BitstreamVeraSans-Roman-31"/>
       <use x="159.033203125" xlink:href="#BitstreamVeraSans-Roman-30"/>
      </g>
     </g>
    </g>
    <g id="text_7">
     <!-- concentration -->
     <defs>
      <path d="M 54.890625 33.015625 
L 54.890625 0 
L 45.90625 0 
L 45.90625 32.71875 
Q 45.90625 40.484375 42.875 44.328125 
Q 39.84375 48.1875 33.796875 48.1875 
Q 26.515625 48.1875 22.3125 43.546875 
Q 18.109375 38.921875 18.109375 30.90625 
L 18.109375 0 
L 9.078125 0 
L 9.078125 54.6875 
L 18.109375 54.6875 
L 18.109375 46.1875 
Q 21.34375 51.125 25.703125 53.5625 
Q 30.078125 56 35.796875 56 
Q 45.21875 56 50.046875 50.171875 
Q 54.890625 44.34375 54.890625 33.015625 
" id="BitstreamVeraSans-Roman-6e"/>
      <path d="M 34.28125 27.484375 
Q 23.390625 27.484375 19.1875 25 
Q 14.984375 22.515625 14.984375 16.5 
Q 14.984375 11.71875 18.140625 8.90625 
Q 21.296875 6.109375 26.703125 6.109375 
Q 34.1875 6.109375 38.703125 11.40625 
Q 43.21875 16.703125 43.21875 25.484375 
L 43.21875 27.484375 
z
M 52.203125 31.203125 
L 52.203125 0 
L 43.21875 0 
L 43.21875 8.296875 
Q 40.140625 3.328125 35.546875 0.953125 
Q 30.953125 -1.421875 24.3125 -1.421875 
Q 15.921875 -1.421875 10.953125 3.296875 
Q 6 8.015625 6 15.921875 
Q 6 25.140625 12.171875 29.828125 
Q 18.359375 34.515625 30.609375 34.515625 
L 43.21875 34.515625 
L 43.21875 35.40625 
Q 43.21875 41.609375 39.140625 45 
Q 35.0625 48.390625 27.6875 48.390625 
Q 23 48.390625 18.546875 47.265625 
Q 14.109375 46.140625 10.015625 43.890625 
L 10.015625 52.203125 
Q 14.9375 54.109375 19.578125 55.046875 
Q 24.21875 56 28.609375 56 
Q 40.484375 56 46.34375 49.84375 
Q 52.203125 43.703125 52.203125 31.203125 
" id="BitstreamVeraSans-Roman-61"/>
      <path d="M 30.609375 48.390625 
Q 23.390625 48.390625 19.1875 42.75 
Q 14.984375 37.109375 14.984375 27.296875 
Q 14.984375 17.484375 19.15625 11.84375 
Q 23.34375 6.203125 30.609375 6.203125 
Q 37.796875 6.203125 41.984375 11.859375 
Q 46.1875 17.53125 46.1875 27.296875 
Q 46.1875 37.015625 41.984375 42.703125 
Q 37.796875 48.390625 30.609375 48.390625 
M 30.609375 56 
Q 42.328125 56 49.015625 48.375 
Q 55.71875 40.765625 55.71875 27.296875 
Q 55.71875 13.875 49.015625 6.21875 
Q 42.328125 -1.421875 30.609375 -1.421875 
Q 18.84375 -1.421875 12.171875 6.21875 
Q 5.515625 13.875 5.515625 27.296875 
Q 5.515625 40.765625 12.171875 48.375 
Q 18.84375 56 30.609375 56 
" id="BitstreamVeraSans-Roman-6f"/>
      <path d="M 9.421875 54.6875 
L 18.40625 54.6875 
L 18.40625 0 
L 9.421875 0 
z
M 9.421875 75.984375 
L 18.40625 75.984375 
L 18.40625 64.59375 
L 9.421875 64.59375 
z
" id="BitstreamVeraSans-Roman-69"/>
      <path d="M 56.203125 29.59375 
L 56.203125 25.203125 
L 14.890625 25.203125 
Q 15.484375 15.921875 20.484375 11.0625 
Q 25.484375 6.203125 34.421875 6.203125 
Q 39.59375 6.203125 44.453125 7.46875 
Q 49.3125 8.734375 54.109375 11.28125 
L 54.109375 2.78125 
Q 49.265625 0.734375 44.1875 -0.34375 
Q 39.109375 -1.421875 33.890625 -1.421875 
Q 20.796875 -1.421875 13.15625 6.1875 
Q 5.515625 13.8125 5.515625 26.8125 
Q 5.515625 40.234375 12.765625 48.109375 
Q 20.015625 56 32.328125 56 
Q 43.359375 56 49.78125 48.890625 
Q 56.203125 41.796875 56.203125 29.59375 
M 47.21875 32.234375 
Q 47.125 39.59375 43.09375 43.984375 
Q 39.0625 48.390625 32.421875 48.390625 
Q 24.90625 48.390625 20.390625 44.140625 
Q 15.875 39.890625 15.1875 32.171875 
z
" id="BitstreamVeraSans-Roman-65"/>
      <path d="M 18.3125 70.21875 
L 18.3125 54.6875 
L 36.8125 54.6875 
L 36.8125 47.703125 
L 18.3125 47.703125 
L 18.3125 18.015625 
Q 18.3125 11.328125 20.140625 9.421875 
Q 21.96875 7.515625 27.59375 7.515625 
L 36.8125 7.515625 
L 36.8125 0 
L 27.59375 0 
Q 17.1875 0 13.234375 3.875 
Q 9.28125 7.765625 9.28125 18.015625 
L 9.28125 47.703125 
L 2.6875 47.703125 
L 2.6875 54.6875 
L 9.28125 54.6875 
L 9.28125 70.21875 
z
" id="BitstreamVeraSans-Roman-74"/>
      <path d="M 41.109375 46.296875 
Q 39.59375 47.171875 37.8125 47.578125 
Q 36.03125 48 33.890625 48 
Q 26.265625 48 22.1875 43.046875 
Q 18.109375 38.09375 18.109375 28.8125 
L 18.109375 0 
L 9.078125 0 
L 9.078125 54.6875 
L 18.109375 54.6875 
L 18.109375 46.1875 
Q 20.953125 51.171875 25.484375 53.578125 
Q 30.03125 56 36.53125 56 
Q 37.453125 56 38.578125 55.875 
Q 39.703125 55.765625 41.0625 55.515625 
z
" id="BitstreamVeraSans-Roman-72"/>
      <path d="M 48.78125 52.59375 
L 48.78125 44.1875 
Q 44.96875 46.296875 41.140625 47.34375 
Q 37.3125 48.390625 33.40625 48.390625 
Q 24.65625 48.390625 19.8125 42.84375 
Q 14.984375 37.3125 14.984375 27.296875 
Q 14.984375 17.28125 19.8125 11.734375 
Q 24.65625 6.203125 33.40625 6.203125 
Q 37.3125 6.203125 41.140625 7.25 
Q 44.96875 8.296875 48.78125 10.40625 
L 48.78125 2.09375 
Q 45.015625 0.34375 40.984375 -0.53125 
Q 36.96875 -1.421875 32.421875 -1.421875 
Q 20.0625 -1.421875 12.78125 6.34375 
Q 5.515625 14.109375 5.515625 27.296875 
Q 5.515625 40.671875 12.859375 48.328125 
Q 20.21875 56 33.015625 56 
Q 37.15625 56 41.109375 55.140625 
Q 45.0625 54.296875 48.78125 52.59375 
" id="BitstreamVeraSans-Roman-63"/>
     </defs>
     <g transform="translate(253.6453125 418.531875)scale(0.12 -0.12)">
      <use xlink:href="#BitstreamVeraSans-Roman-63"/>
      <use x="54.98046875" xlink:href="#BitstreamVeraSans-Roman-6f"/>
      <use x="116.162109375" xlink:href="#BitstreamVeraSans-Roman-6e"/>
      <use x="179.541015625" xlink:href="#BitstreamVeraSans-Roman-63"/>
      <use x="234.521484375" xlink:href="#BitstreamVeraSans-Roman-65"/>
      <use x="296.044921875" xlink:href="#BitstreamVeraSans-Roman-6e"/>
      <use x="359.423828125" xlink:href="#BitstreamVeraSans-Roman-74"/>
      <use x="398.6328125" xlink:href="#BitstreamVeraSans-Roman-72"/>
      <use x="439.74609375" xlink:href="#BitstreamVeraSans-Roman-61"/>
      <use x="501.025390625" xlink:href="#BitstreamVeraSans-Roman-74"/>
      <use x="540.234375" xlink:href="#BitstreamVeraSans-Roman-69"/>
      <use x="568.017578125" xlink:href="#BitstreamVeraSans-Roman-6f"/>
      <use x="629.19921875" xlink:href="#BitstreamVeraSans-Roman-6e"/>
     </g>
    </g>
   </g>
   <g id="matplotlib.axis_2">
    <g id="ytick_1">
     <g id="line2d_16">
      <defs>
       <path d="M 0 0 
L 4 0 
" id="m18c66eb686" style="stroke:#000000;stroke-width:0.5;"/>
      </defs>
      <g>
       <use style="stroke:#000000;stroke-width:0.5;" x="72.0" xlink:href="#m18c66eb686" y="388.8"/>
      </g>
     </g>
     <g id="line2d_17">
      <defs>
       <path d="M 0 0 
L -4 0 
" id="m03ed6e8661" style="stroke:#000000;stroke-width:0.5;"/>
      </defs>
      <g>
       <use style="stroke:#000000;stroke-width:0.5;" x="518.4" xlink:href="#m03ed6e8661" y="388.8"/>
      </g>
     </g>
     <g id="text_8">
      <!-- 0.0 -->
      <g transform="translate(48.91625 392.11125)scale(0.12 -0.12)">
       <use xlink:href="#BitstreamVeraSans-Roman-30"/>
       <use x="63.623046875" xlink:href="#BitstreamVeraSans-Roman-2e"/>
       <use x="95.41015625" xlink:href="#BitstreamVeraSans-Roman-30"/>
      </g>
     </g>
    </g>
    <g id="ytick_2">
     <g id="line2d_18">
      <g>
       <use style="stroke:#000000;stroke-width:0.5;" x="72.0" xlink:href="#m18c66eb686" y="319.68"/>
      </g>
     </g>
     <g id="line2d_19">
      <g>
       <use style="stroke:#000000;stroke-width:0.5;" x="518.4" xlink:href="#m03ed6e8661" y="319.68"/>
      </g>
     </g>
     <g id="text_9">
      <!-- 0.2 -->
      <g transform="translate(48.91625 322.99125)scale(0.12 -0.12)">
       <use xlink:href="#BitstreamVeraSans-Roman-30"/>
       <use x="63.623046875" xlink:href="#BitstreamVeraSans-Roman-2e"/>
       <use x="95.41015625" xlink:href="#BitstreamVeraSans-Roman-32"/>
      </g>
     </g>
    </g>
    <g id="ytick_3">
     <g id="line2d_20">
      <g>
       <use style="stroke:#000000;stroke-width:0.5;" x="72.0" xlink:href="#m18c66eb686" y="250.56"/>
      </g>
     </g>
     <g id="line2d_21">
      <g>
       <use style="stroke:#000000;stroke-width:0.5;" x="518.4" xlink:href="#m03ed6e8661" y="250.56"/>
      </g>
     </g>
     <g id="text_10">
      <!-- 0.4 -->
      <g transform="translate(48.91625 253.87125)scale(0.12 -0.12)">
       <use xlink:href="#BitstreamVeraSans-Roman-30"/>
       <use x="63.623046875" xlink:href="#BitstreamVeraSans-Roman-2e"/>
       <use x="95.41015625" xlink:href="#BitstreamVeraSans-Roman-34"/>
      </g>
     </g>
    </g>
    <g id="ytick_4">
     <g id="line2d_22">
      <g>
       <use style="stroke:#000000;stroke-width:0.5;" x="72.0" xlink:href="#m18c66eb686" y="181.44"/>
      </g>
     </g>
     <g id="line2d_23">
      <g>
       <use style="stroke:#000000;stroke-width:0.5;" x="518.4" xlink:href="#m03ed6e8661" y="181.44"/>
      </g>
     </g>
     <g id="text_11">
      <!-- 0.6 -->
      <g transform="translate(48.91625 184.75125)scale(0.12 -0.12)">
       <use xlink:href="#BitstreamVeraSans-Roman-30"/>
       <use x="63.623046875" xlink:href="#BitstreamVeraSans-Roman-2e"/>
       <use x="95.41015625" xlink:href="#BitstreamVeraSans-Roman-36"/>
      </g>
     </g>
    </g>
    <g id="ytick_5">
     <g id="line2d_24">
      <g>
       <use style="stroke:#000000;stroke-width:0.5;" x="72.0" xlink:href="#m18c66eb686" y="112.32"/>
      </g>
     </g>
     <g id="line2d_25">
      <g>
       <use style="stroke:#000000;stroke-width:0.5;" x="518.4" xlink:href="#m03ed6e8661" y="112.32"/>
      </g>
     </g>
     <g id="text_12">
      <!-- 0.8 -->
      <g transform="translate(48.91625 115.63125)scale(0.12 -0.12)">
       <use xlink:href="#BitstreamVeraSans-Roman-30"/>
       <use x="63.623046875" xlink:href="#BitstreamVeraSans-Roman-2e"/>
       <use x="95.41015625" xlink:href="#BitstreamVeraSans-Roman-38"/>
      </g>
     </g>
    </g>
    <g id="ytick_6">
     <g id="line2d_26">
      <g>
       <use style="stroke:#000000;stroke-width:0.5;" x="72.0" xlink:href="#m18c66eb686" y="43.2"/>
      </g>
     </g>
     <g id="line2d_27">
      <g>
       <use style="stroke:#000000;stroke-width:0.5;" x="518.4" xlink:href="#m03ed6e8661" y="43.2"/>
      </g>
     </g>
     <g id="text_13">
      <!-- 1.0 -->
      <g transform="translate(48.91625 46.51125)scale(0.12 -0.12)">
       <use xlink:href="#BitstreamVeraSans-Roman-31"/>
       <use x="63.623046875" xlink:href="#BitstreamVeraSans-Roman-2e"/>
       <use x="95.41015625" xlink:href="#BitstreamVeraSans-Roman-30"/>
      </g>
     </g>
    </g>
    <g id="text_14">
     <!-- $\alpha$ -->
     <defs>
      <path d="M 20.125 -1.125 
Q 15.375 -1.125 11.6875 1.125 
Q 8.015625 3.375 6 7.171875 
Q 4 10.984375 4 15.828125 
Q 4 22.609375 7.78125 29.25 
Q 11.578125 35.890625 17.84375 40.03125 
Q 24.125 44.1875 31 44.1875 
Q 36.078125 44.1875 39.9375 41.53125 
Q 43.796875 38.875 45.796875 34.453125 
Q 47.796875 30.03125 47.796875 25 
L 47.90625 18.3125 
Q 51.3125 23.046875 53.6875 28.140625 
Q 56.0625 33.25 57.328125 38.71875 
Q 57.515625 39.3125 58.109375 39.3125 
L 59.28125 39.3125 
Q 60.203125 39.3125 60.203125 38.375 
Q 60.203125 38.28125 60.109375 38.09375 
Q 58.9375 33.5 57.171875 29.265625 
Q 55.421875 25.046875 53.046875 21.09375 
Q 50.6875 17.140625 47.90625 13.921875 
Q 47.90625 1.515625 50.78125 1.515625 
Q 52.640625 1.515625 53.828125 2.609375 
Q 55.03125 3.71875 55.9375 5.328125 
Q 56.84375 6.9375 57.078125 6.984375 
L 58.296875 6.984375 
Q 59.078125 6.984375 59.078125 6 
Q 59.078125 3.515625 56.21875 1.1875 
Q 53.375 -1.125 50.59375 -1.125 
Q 46.96875 -1.125 44.578125 1.21875 
Q 42.1875 3.5625 41.3125 7.328125 
Q 36.625 3.328125 31.15625 1.09375 
Q 25.6875 -1.125 20.125 -1.125 
M 20.3125 1.515625 
Q 31 1.515625 40.828125 10.296875 
Q 40.765625 10.890625 40.671875 11.734375 
Q 40.578125 12.59375 40.578125 12.703125 
L 40.578125 23.484375 
Q 40.578125 41.609375 30.8125 41.609375 
Q 24.953125 41.609375 20.546875 36.59375 
Q 16.15625 31.59375 13.9375 24.625 
Q 11.71875 17.671875 11.71875 11.921875 
Q 11.71875 7.5625 13.9375 4.53125 
Q 16.15625 1.515625 20.3125 1.515625 
" id="Cmmi10-ae"/>
     </defs>
     <g transform="translate(41.420625 219.84)rotate(-90.0)scale(0.12 -0.12)">
      <use transform="translate(0.0 0.8125)" xlink:href="#Cmmi10-ae"/>
     </g>
    </g>
   </g>
   <g id="legend_1">
    <g id="patch_7">
     <path d="M 205.488 119.05425 
L 511.2 119.05425 
L 511.2 50.4 
L 205.488 50.4 
z
" style="fill:#ffffff;stroke:#000000;stroke-linejoin:miter;"/>
    </g>
    <g id="line2d_28">
     <path d="M 215.568 62.95725 
L 235.728 62.95725 
" style="fill:none;stroke:#56b4e9;stroke-dasharray:6.000000,6.000000;stroke-dashoffset:0.0;"/>
    </g>
    <g id="line2d_29">
     <g>
      <use style="fill:#56b4e9;stroke:#000000;stroke-linejoin:miter;stroke-width:0.5;" x="215.568" xlink:href="#mf30a1ceb16" y="62.95725"/>
      <use style="fill:#56b4e9;stroke:#000000;stroke-linejoin:miter;stroke-width:0.5;" x="235.728" xlink:href="#mf30a1ceb16" y="62.95725"/>
     </g>
    </g>
    <g id="text_15">
     <!-- Reaction Ensemble, $K_{diss} = 8.3\cdot 10^{-4}$ -->
     <defs>
      <path d="M 9.515625 7.71875 
Q 11.859375 4.296875 15.8125 2.640625 
Q 19.78125 0.984375 24.3125 0.984375 
Q 30.125 0.984375 32.5625 5.9375 
Q 35.015625 10.890625 35.015625 17.1875 
Q 35.015625 20.015625 34.5 22.84375 
Q 33.984375 25.6875 32.765625 28.125 
Q 31.546875 30.5625 29.421875 32.03125 
Q 27.296875 33.5 24.21875 33.5 
L 17.578125 33.5 
Q 16.703125 33.5 16.703125 34.421875 
L 16.703125 35.296875 
Q 16.703125 36.078125 17.578125 36.078125 
L 23.09375 36.53125 
Q 26.609375 36.53125 28.921875 39.15625 
Q 31.25 41.796875 32.328125 45.578125 
Q 33.40625 49.359375 33.40625 52.78125 
Q 33.40625 57.5625 31.15625 60.640625 
Q 28.90625 63.71875 24.3125 63.71875 
Q 20.515625 63.71875 17.046875 62.28125 
Q 13.578125 60.84375 11.53125 57.90625 
Q 11.71875 57.953125 11.859375 57.984375 
Q 12.015625 58.015625 12.203125 58.015625 
Q 14.453125 58.015625 15.96875 56.453125 
Q 17.484375 54.890625 17.484375 52.6875 
Q 17.484375 50.53125 15.96875 48.96875 
Q 14.453125 47.40625 12.203125 47.40625 
Q 10.015625 47.40625 8.453125 48.96875 
Q 6.890625 50.53125 6.890625 52.6875 
Q 6.890625 56.984375 9.46875 60.15625 
Q 12.0625 63.328125 16.140625 64.96875 
Q 20.21875 66.609375 24.3125 66.609375 
Q 27.34375 66.609375 30.703125 65.703125 
Q 34.078125 64.796875 36.8125 63.109375 
Q 39.546875 61.421875 41.28125 58.78125 
Q 43.015625 56.15625 43.015625 52.78125 
Q 43.015625 48.578125 41.140625 45.015625 
Q 39.265625 41.453125 35.984375 38.859375 
Q 32.71875 36.28125 28.8125 35.015625 
Q 33.15625 34.1875 37.0625 31.734375 
Q 40.96875 29.296875 43.328125 25.484375 
Q 45.703125 21.6875 45.703125 17.28125 
Q 45.703125 11.765625 42.671875 7.296875 
Q 39.65625 2.828125 34.71875 0.3125 
Q 29.78125 -2.203125 24.3125 -2.203125 
Q 19.625 -2.203125 14.90625 -0.40625 
Q 10.203125 1.375 7.203125 4.9375 
Q 4.203125 8.5 4.203125 13.484375 
Q 4.203125 15.96875 5.859375 17.625 
Q 7.515625 19.28125 10.015625 19.28125 
Q 11.625 19.28125 12.96875 18.53125 
Q 14.3125 17.78125 15.0625 16.40625 
Q 15.828125 15.046875 15.828125 13.484375 
Q 15.828125 11.03125 14.109375 9.375 
Q 12.40625 7.71875 10.015625 7.71875 
z
" id="Cmr10-33"/>
      <path id="BitstreamVeraSans-Roman-20"/>
      <path d="M 9.28125 0 
L 9.28125 3.515625 
Q 21.78125 3.515625 21.78125 6.6875 
L 21.78125 59.1875 
Q 16.609375 56.6875 8.6875 56.6875 
L 8.6875 60.203125 
Q 20.953125 60.203125 27.203125 66.609375 
L 28.609375 66.609375 
Q 28.953125 66.609375 29.265625 66.328125 
Q 29.59375 66.0625 29.59375 65.71875 
L 29.59375 6.6875 
Q 29.59375 3.515625 42.09375 3.515625 
L 42.09375 0 
z
" id="Cmr10-31"/>
      <path d="M 25 -2.203125 
Q 12.75 -2.203125 8.328125 7.875 
Q 3.90625 17.96875 3.90625 31.890625 
Q 3.90625 40.578125 5.484375 48.234375 
Q 7.078125 55.90625 11.78125 61.25 
Q 16.5 66.609375 25 66.609375 
Q 31.59375 66.609375 35.78125 63.375 
Q 39.984375 60.15625 42.1875 55.046875 
Q 44.390625 49.953125 45.1875 44.109375 
Q 46 38.28125 46 31.890625 
Q 46 23.296875 44.40625 15.796875 
Q 42.828125 8.296875 38.1875 3.046875 
Q 33.546875 -2.203125 25 -2.203125 
M 25 0.390625 
Q 30.5625 0.390625 33.296875 6.09375 
Q 36.03125 11.8125 36.671875 18.75 
Q 37.3125 25.6875 37.3125 33.5 
Q 37.3125 41.015625 36.671875 47.359375 
Q 36.03125 53.71875 33.3125 58.859375 
Q 30.609375 64.015625 25 64.015625 
Q 19.34375 64.015625 16.609375 58.828125 
Q 13.875 53.65625 13.234375 47.328125 
Q 12.59375 41.015625 12.59375 33.5 
Q 12.59375 27.9375 12.859375 23 
Q 13.140625 18.0625 14.3125 12.8125 
Q 15.484375 7.5625 18.09375 3.96875 
Q 20.703125 0.390625 25 0.390625 
" id="Cmr10-30"/>
      <path d="M 4.6875 0 
Q 3.71875 0 3.71875 1.3125 
Q 3.765625 1.5625 3.90625 2.171875 
Q 4.046875 2.78125 4.3125 3.140625 
Q 4.59375 3.515625 4.984375 3.515625 
Q 11.078125 3.515625 13.484375 4.203125 
Q 14.796875 4.640625 15.375 6.890625 
L 29.109375 61.8125 
Q 29.296875 62.796875 29.296875 63.1875 
Q 29.296875 64.265625 28.078125 64.40625 
Q 26.21875 64.796875 20.90625 64.796875 
Q 19.921875 64.796875 19.921875 66.109375 
Q 20.265625 67.390625 20.453125 67.84375 
Q 20.65625 68.3125 21.578125 68.3125 
L 48.484375 68.3125 
Q 49.515625 68.3125 49.515625 67 
Q 49.46875 66.75 49.3125 66.15625 
Q 49.171875 65.578125 48.921875 65.1875 
Q 48.6875 64.796875 48.1875 64.796875 
Q 42.09375 64.796875 39.703125 64.109375 
Q 38.375 63.625 37.796875 61.375 
L 29.6875 29 
L 68.890625 59.28125 
Q 69 59.46875 70.140625 60.609375 
Q 71.296875 61.765625 71.296875 62.890625 
Q 71.296875 64.796875 67.921875 64.796875 
Q 66.890625 64.796875 66.890625 66.109375 
Q 67.09375 66.890625 67.203125 67.328125 
Q 67.328125 67.78125 67.640625 68.046875 
Q 67.96875 68.3125 68.609375 68.3125 
L 87.984375 68.3125 
Q 88.53125 68.3125 88.765625 67.921875 
Q 89.015625 67.53125 89.015625 67 
Q 88.96875 66.75 88.796875 66.109375 
Q 88.625 65.484375 88.359375 65.140625 
Q 88.09375 64.796875 87.59375 64.796875 
Q 80.28125 64.796875 71.578125 58.015625 
Q 71.53125 57.953125 71.4375 57.921875 
Q 71.34375 57.90625 71.234375 57.875 
Q 71.140625 57.859375 71.09375 57.8125 
L 50.484375 41.796875 
L 65.484375 6.6875 
Q 66.84375 4.5 68.40625 4 
Q 69.96875 3.515625 73.1875 3.515625 
Q 74.21875 3.515625 74.21875 2.203125 
Q 73.921875 1.03125 73.625 0.515625 
Q 73.34375 0 72.515625 0 
L 49.3125 0 
Q 48.390625 0 48.390625 1.3125 
Q 48.53125 2.34375 48.71875 2.921875 
Q 48.921875 3.515625 49.703125 3.515625 
Q 52.25 3.515625 54.03125 4.03125 
Q 55.8125 4.546875 55.8125 6.390625 
Q 55.8125 7.078125 55.71875 7.421875 
L 43.3125 36.28125 
L 28.71875 25 
L 24.125 6.5 
Q 23.875 5.28125 23.875 5.078125 
Q 23.875 4.046875 25.09375 3.90625 
Q 27 3.515625 32.328125 3.515625 
Q 33.296875 3.515625 33.296875 2.203125 
Q 32.953125 0.78125 32.75 0.390625 
Q 32.5625 0 31.59375 0 
z
" id="Cmmi10-4b"/>
      <path d="M 8.40625 25 
Q 8.40625 26.421875 9.125 27.6875 
Q 9.859375 28.953125 11.15625 29.734375 
Q 12.453125 30.515625 13.921875 30.515625 
Q 15.328125 30.515625 16.625 29.734375 
Q 17.921875 28.953125 18.65625 27.6875 
Q 19.390625 26.421875 19.390625 25 
Q 19.390625 22.75 17.796875 21.109375 
Q 16.21875 19.484375 13.921875 19.484375 
Q 11.671875 19.484375 10.03125 21.109375 
Q 8.40625 22.75 8.40625 25 
" id="Cmsy10-a2"/>
      <path d="M 11.71875 12.40625 
L 22.015625 12.40625 
L 22.015625 4 
L 14.015625 -11.625 
L 7.71875 -11.625 
L 11.71875 4 
z
" id="BitstreamVeraSans-Roman-2c"/>
      <path d="M 52 44.1875 
Q 55.375 50.25 60.0625 53.125 
Q 64.75 56 71.09375 56 
Q 79.640625 56 84.28125 50.015625 
Q 88.921875 44.046875 88.921875 33.015625 
L 88.921875 0 
L 79.890625 0 
L 79.890625 32.71875 
Q 79.890625 40.578125 77.09375 44.375 
Q 74.3125 48.1875 68.609375 48.1875 
Q 61.625 48.1875 57.5625 43.546875 
Q 53.515625 38.921875 53.515625 30.90625 
L 53.515625 0 
L 44.484375 0 
L 44.484375 32.71875 
Q 44.484375 40.625 41.703125 44.40625 
Q 38.921875 48.1875 33.109375 48.1875 
Q 26.21875 48.1875 22.15625 43.53125 
Q 18.109375 38.875 18.109375 30.90625 
L 18.109375 0 
L 9.078125 0 
L 9.078125 54.6875 
L 18.109375 54.6875 
L 18.109375 46.1875 
Q 21.1875 51.21875 25.484375 53.609375 
Q 29.78125 56 35.6875 56 
Q 41.65625 56 45.828125 52.96875 
Q 50 49.953125 52 44.1875 
" id="BitstreamVeraSans-Roman-6d"/>
      <path d="M 4.203125 15.1875 
Q 4.203125 21.1875 8.15625 25.796875 
Q 12.109375 30.421875 18.3125 33.5 
L 14.59375 35.890625 
Q 11.1875 38.140625 9.03125 41.875 
Q 6.890625 45.609375 6.890625 49.703125 
Q 6.890625 54.5 9.40625 58.34375 
Q 11.921875 62.203125 16.09375 64.40625 
Q 20.265625 66.609375 25 66.609375 
Q 29.4375 66.609375 33.5625 64.796875 
Q 37.703125 62.984375 40.359375 59.609375 
Q 43.015625 56.25 43.015625 51.609375 
Q 43.015625 48.25 41.421875 45.359375 
Q 39.84375 42.484375 37.078125 40.1875 
Q 34.328125 37.890625 31.203125 36.28125 
L 36.921875 32.625 
Q 40.875 30.03125 43.28125 25.828125 
Q 45.703125 21.625 45.703125 17 
Q 45.703125 11.578125 42.796875 7.125 
Q 39.890625 2.6875 35.109375 0.234375 
Q 30.328125 -2.203125 25 -2.203125 
Q 19.828125 -2.203125 15.015625 -0.09375 
Q 10.203125 2 7.203125 5.984375 
Q 4.203125 9.96875 4.203125 15.1875 
M 9.625 15.1875 
Q 9.625 11.234375 11.796875 7.953125 
Q 13.96875 4.6875 17.53125 2.828125 
Q 21.09375 0.984375 25 0.984375 
Q 30.8125 0.984375 35.546875 4.375 
Q 40.28125 7.765625 40.28125 13.375 
Q 40.28125 15.28125 39.515625 17.15625 
Q 38.765625 19.046875 37.421875 20.578125 
Q 36.078125 22.125 34.421875 23.09375 
L 21 31.78125 
Q 17.875 30.125 15.25 27.578125 
Q 12.640625 25.046875 11.125 21.875 
Q 9.625 18.703125 9.625 15.1875 
M 16.5 45.703125 
L 28.609375 37.890625 
Q 32.8125 40.328125 35.5 43.796875 
Q 38.1875 47.265625 38.1875 51.609375 
Q 38.1875 54.984375 36.296875 57.78125 
Q 34.421875 60.59375 31.390625 62.15625 
Q 28.375 63.71875 24.90625 63.71875 
Q 21.875 63.71875 18.796875 62.546875 
Q 15.71875 61.375 13.71875 59.046875 
Q 11.71875 56.734375 11.71875 53.609375 
Q 11.71875 48.921875 16.5 45.703125 
" id="Cmr10-38"/>
      <path d="M 9.8125 72.90625 
L 55.90625 72.90625 
L 55.90625 64.59375 
L 19.671875 64.59375 
L 19.671875 43.015625 
L 54.390625 43.015625 
L 54.390625 34.71875 
L 19.671875 34.71875 
L 19.671875 8.296875 
L 56.78125 8.296875 
L 56.78125 0 
L 9.8125 0 
z
" id="BitstreamVeraSans-Roman-45"/>
      <path d="M 9.421875 75.984375 
L 18.40625 75.984375 
L 18.40625 0 
L 9.421875 0 
z
" id="BitstreamVeraSans-Roman-6c"/>
      <path d="M 8.6875 6.109375 
Q 11.375 1.515625 19.484375 1.515625 
Q 23 1.515625 26.171875 2.703125 
Q 29.34375 3.90625 31.421875 6.296875 
Q 33.5 8.6875 33.5 12.109375 
Q 33.5 14.703125 31.640625 16.359375 
Q 29.78125 18.015625 27.09375 18.609375 
L 21.6875 19.671875 
Q 17.96875 20.609375 15.578125 23.140625 
Q 13.1875 25.6875 13.1875 29.296875 
Q 13.1875 33.734375 15.59375 37.15625 
Q 18.015625 40.578125 21.96875 42.375 
Q 25.921875 44.1875 30.171875 44.1875 
Q 34.71875 44.1875 38.296875 42.015625 
Q 41.890625 39.84375 41.890625 35.59375 
Q 41.890625 33.296875 40.59375 31.53125 
Q 39.3125 29.78125 37.015625 29.78125 
Q 35.6875 29.78125 34.734375 30.640625 
Q 33.796875 31.5 33.796875 32.8125 
Q 33.796875 33.984375 34.453125 35.078125 
Q 35.109375 36.1875 36.203125 36.84375 
Q 37.3125 37.5 38.484375 37.5 
Q 37.59375 39.65625 35.171875 40.625 
Q 32.765625 41.609375 29.984375 41.609375 
Q 27.4375 41.609375 24.890625 40.578125 
Q 22.359375 39.546875 20.8125 37.5625 
Q 19.28125 35.59375 19.28125 32.90625 
Q 19.28125 31.109375 20.546875 29.734375 
Q 21.828125 28.375 23.6875 27.78125 
L 29.5 26.609375 
Q 32.28125 26.03125 34.59375 24.53125 
Q 36.921875 23.046875 38.25 20.765625 
Q 39.59375 18.5 39.59375 15.578125 
Q 39.59375 11.859375 37.515625 8.25 
Q 35.453125 4.640625 32.421875 2.484375 
Q 27.09375 -1.125 19.390625 -1.125 
Q 14.0625 -1.125 9.609375 1.3125 
Q 5.171875 3.765625 5.171875 8.59375 
Q 5.171875 11.328125 6.75 13.34375 
Q 8.34375 15.375 11.078125 15.375 
Q 12.703125 15.375 13.796875 14.390625 
Q 14.890625 13.421875 14.890625 11.8125 
Q 14.890625 9.515625 13.171875 7.8125 
Q 11.46875 6.109375 9.1875 6.109375 
z
" id="Cmmi10-73"/>
      <path d="M 44.390625 34.1875 
Q 47.5625 33.109375 50.5625 29.59375 
Q 53.5625 26.078125 56.59375 19.921875 
L 66.609375 0 
L 56 0 
L 46.6875 18.703125 
Q 43.0625 26.03125 39.671875 28.421875 
Q 36.28125 30.8125 30.421875 30.8125 
L 19.671875 30.8125 
L 19.671875 0 
L 9.8125 0 
L 9.8125 72.90625 
L 32.078125 72.90625 
Q 44.578125 72.90625 50.734375 67.671875 
Q 56.890625 62.453125 56.890625 51.90625 
Q 56.890625 45.015625 53.6875 40.46875 
Q 50.484375 35.9375 44.390625 34.1875 
M 19.671875 64.796875 
L 19.671875 38.921875 
L 32.078125 38.921875 
Q 39.203125 38.921875 42.84375 42.21875 
Q 46.484375 45.515625 46.484375 51.90625 
Q 46.484375 58.296875 42.84375 61.546875 
Q 39.203125 64.796875 32.078125 64.796875 
z
" id="BitstreamVeraSans-Roman-52"/>
      <path d="M 10.203125 23 
Q 9.375 23 8.828125 23.625 
Q 8.296875 24.265625 8.296875 25 
Q 8.296875 25.734375 8.828125 26.359375 
Q 9.375 27 10.203125 27 
L 67.578125 27 
Q 68.359375 27 68.875 26.359375 
Q 69.390625 25.734375 69.390625 25 
Q 69.390625 24.265625 68.875 23.625 
Q 68.359375 23 67.578125 23 
z
" id="Cmsy10-a1"/>
      <path d="M 17.390625 -1.125 
Q 11.078125 -1.125 7.4375 3.640625 
Q 3.8125 8.40625 3.8125 14.890625 
Q 3.8125 21.296875 7.125 28.171875 
Q 10.453125 35.0625 16.09375 39.625 
Q 21.734375 44.1875 28.21875 44.1875 
Q 31.15625 44.1875 33.515625 42.546875 
Q 35.890625 40.921875 37.203125 38.1875 
L 42.828125 60.5 
Q 43.21875 62.203125 43.3125 63.1875 
Q 43.3125 64.796875 36.8125 64.796875 
Q 35.796875 64.796875 35.796875 66.109375 
Q 35.84375 66.359375 36.015625 66.984375 
Q 36.1875 67.625 36.453125 67.96875 
Q 36.71875 68.3125 37.203125 68.3125 
L 50.6875 69.390625 
Q 51.90625 69.390625 51.90625 68.109375 
L 37.5 10.59375 
Q 36.8125 8.9375 36.8125 5.8125 
Q 36.8125 1.515625 39.703125 1.515625 
Q 42.828125 1.515625 44.453125 5.484375 
Q 46.09375 9.46875 47.21875 14.703125 
Q 47.40625 15.28125 48 15.28125 
L 49.21875 15.28125 
Q 49.609375 15.28125 49.84375 14.9375 
Q 50.09375 14.59375 50.09375 14.3125 
Q 48.34375 7.328125 46.265625 3.09375 
Q 44.1875 -1.125 39.5 -1.125 
Q 36.140625 -1.125 33.546875 0.84375 
Q 30.953125 2.828125 30.328125 6.109375 
Q 23.875 -1.125 17.390625 -1.125 
M 17.484375 1.515625 
Q 21.09375 1.515625 24.484375 4.21875 
Q 27.875 6.9375 30.328125 10.59375 
Q 30.421875 10.6875 30.421875 10.984375 
L 35.890625 33.015625 
Q 35.296875 36.53125 33.296875 39.0625 
Q 31.296875 41.609375 27.984375 41.609375 
Q 24.609375 41.609375 21.703125 38.84375 
Q 18.796875 36.078125 16.796875 32.328125 
Q 14.84375 28.328125 13.0625 21.34375 
Q 11.28125 14.359375 11.28125 10.5 
Q 11.28125 7.03125 12.765625 4.265625 
Q 14.265625 1.515625 17.484375 1.515625 
" id="Cmmi10-64"/>
      <path d="M 7.515625 13.28125 
Q 6.6875 13.28125 6.140625 13.90625 
Q 5.609375 14.546875 5.609375 15.28125 
Q 5.609375 16.109375 6.140625 16.6875 
Q 6.6875 17.28125 7.515625 17.28125 
L 70.3125 17.28125 
Q 71.046875 17.28125 71.578125 16.6875 
Q 72.125 16.109375 72.125 15.28125 
Q 72.125 14.546875 71.578125 13.90625 
Q 71.046875 13.28125 70.3125 13.28125 
z
M 7.515625 32.71875 
Q 6.6875 32.71875 6.140625 33.296875 
Q 5.609375 33.890625 5.609375 34.71875 
Q 5.609375 35.453125 6.140625 36.078125 
Q 6.6875 36.71875 7.515625 36.71875 
L 70.3125 36.71875 
Q 71.046875 36.71875 71.578125 36.078125 
Q 72.125 35.453125 72.125 34.71875 
Q 72.125 33.890625 71.578125 33.296875 
Q 71.046875 32.71875 70.3125 32.71875 
z
" id="Cmr10-3d"/>
      <path d="M 7.8125 7.171875 
Q 7.8125 9.03125 8.59375 11.078125 
L 16.703125 32.625 
Q 18.015625 36.28125 18.015625 38.625 
Q 18.015625 41.609375 15.828125 41.609375 
Q 11.859375 41.609375 9.296875 37.53125 
Q 6.734375 33.453125 5.515625 28.421875 
Q 5.328125 27.78125 4.6875 27.78125 
L 3.515625 27.78125 
Q 2.6875 27.78125 2.6875 28.71875 
L 2.6875 29 
Q 4.296875 34.96875 7.609375 39.578125 
Q 10.9375 44.1875 16.015625 44.1875 
Q 19.578125 44.1875 22.046875 41.84375 
Q 24.515625 39.5 24.515625 35.890625 
Q 24.515625 34.03125 23.6875 31.984375 
L 15.578125 10.5 
Q 14.203125 7.171875 14.203125 4.5 
Q 14.203125 1.515625 16.5 1.515625 
Q 20.40625 1.515625 23.015625 5.6875 
Q 25.640625 9.859375 26.703125 14.703125 
Q 26.90625 15.28125 27.484375 15.28125 
L 28.71875 15.28125 
Q 29.109375 15.28125 29.34375 15.015625 
Q 29.59375 14.75 29.59375 14.40625 
Q 29.59375 14.3125 29.5 14.109375 
Q 28.125 8.453125 24.734375 3.65625 
Q 21.34375 -1.125 16.3125 -1.125 
Q 12.796875 -1.125 10.296875 1.296875 
Q 7.8125 3.71875 7.8125 7.171875 
M 19.09375 60.59375 
Q 19.09375 62.703125 20.84375 64.40625 
Q 22.609375 66.109375 24.703125 66.109375 
Q 26.421875 66.109375 27.515625 65.0625 
Q 28.609375 64.015625 28.609375 62.40625 
Q 28.609375 60.15625 26.828125 58.46875 
Q 25.046875 56.78125 22.90625 56.78125 
Q 21.296875 56.78125 20.1875 57.875 
Q 19.09375 58.984375 19.09375 60.59375 
" id="Cmmi10-69"/>
      <path d="M 2.78125 16.5 
L 2.78125 20.015625 
L 33.6875 66.109375 
Q 34.03125 66.609375 34.71875 66.609375 
L 36.1875 66.609375 
Q 37.3125 66.609375 37.3125 65.484375 
L 37.3125 20.015625 
L 47.125 20.015625 
L 47.125 16.5 
L 37.3125 16.5 
L 37.3125 6.6875 
Q 37.3125 4.640625 40.234375 4.078125 
Q 43.171875 3.515625 47.015625 3.515625 
L 47.015625 0 
L 19.484375 0 
L 19.484375 3.515625 
Q 23.34375 3.515625 26.265625 4.078125 
Q 29.203125 4.640625 29.203125 6.6875 
L 29.203125 16.5 
z
M 6.109375 20.015625 
L 29.78125 20.015625 
L 29.78125 55.421875 
z
" id="Cmr10-34"/>
      <path d="M 8.40625 5.515625 
Q 8.40625 7.765625 10.0625 9.375 
Q 11.71875 10.984375 13.921875 10.984375 
Q 15.28125 10.984375 16.59375 10.25 
Q 17.921875 9.515625 18.65625 8.203125 
Q 19.390625 6.890625 19.390625 5.515625 
Q 19.390625 3.328125 17.765625 1.65625 
Q 16.15625 0 13.921875 0 
Q 11.71875 0 10.0625 1.65625 
Q 8.40625 3.328125 8.40625 5.515625 
" id="Cmmi10-3a"/>
      <path d="M 44.28125 53.078125 
L 44.28125 44.578125 
Q 40.484375 46.53125 36.375 47.5 
Q 32.28125 48.484375 27.875 48.484375 
Q 21.1875 48.484375 17.84375 46.4375 
Q 14.5 44.390625 14.5 40.28125 
Q 14.5 37.15625 16.890625 35.375 
Q 19.28125 33.59375 26.515625 31.984375 
L 29.59375 31.296875 
Q 39.15625 29.25 43.1875 25.515625 
Q 47.21875 21.78125 47.21875 15.09375 
Q 47.21875 7.46875 41.1875 3.015625 
Q 35.15625 -1.421875 24.609375 -1.421875 
Q 20.21875 -1.421875 15.453125 -0.5625 
Q 10.6875 0.296875 5.421875 2 
L 5.421875 11.28125 
Q 10.40625 8.6875 15.234375 7.390625 
Q 20.0625 6.109375 24.8125 6.109375 
Q 31.15625 6.109375 34.5625 8.28125 
Q 37.984375 10.453125 37.984375 14.40625 
Q 37.984375 18.0625 35.515625 20.015625 
Q 33.0625 21.96875 24.703125 23.78125 
L 21.578125 24.515625 
Q 13.234375 26.265625 9.515625 29.90625 
Q 5.8125 33.546875 5.8125 39.890625 
Q 5.8125 47.609375 11.28125 51.796875 
Q 16.75 56 26.8125 56 
Q 31.78125 56 36.171875 55.265625 
Q 40.578125 54.546875 44.28125 53.078125 
" id="BitstreamVeraSans-Roman-73"/>
      <path d="M 48.6875 27.296875 
Q 48.6875 37.203125 44.609375 42.84375 
Q 40.53125 48.484375 33.40625 48.484375 
Q 26.265625 48.484375 22.1875 42.84375 
Q 18.109375 37.203125 18.109375 27.296875 
Q 18.109375 17.390625 22.1875 11.75 
Q 26.265625 6.109375 33.40625 6.109375 
Q 40.53125 6.109375 44.609375 11.75 
Q 48.6875 17.390625 48.6875 27.296875 
M 18.109375 46.390625 
Q 20.953125 51.265625 25.265625 53.625 
Q 29.59375 56 35.59375 56 
Q 45.5625 56 51.78125 48.09375 
Q 58.015625 40.1875 58.015625 27.296875 
Q 58.015625 14.40625 51.78125 6.484375 
Q 45.5625 -1.421875 35.59375 -1.421875 
Q 29.59375 -1.421875 25.265625 0.953125 
Q 20.953125 3.328125 18.109375 8.203125 
L 18.109375 0 
L 9.078125 0 
L 9.078125 75.984375 
L 18.109375 75.984375 
z
" id="BitstreamVeraSans-Roman-62"/>
     </defs>
     <g transform="translate(251.568 67.99725)scale(0.144 -0.144)">
      <use transform="translate(0.0 0.109375)" xlink:href="#BitstreamVeraSans-Roman-52"/>
      <use transform="translate(69.482421875 0.109375)" xlink:href="#BitstreamVeraSans-Roman-65"/>
      <use transform="translate(131.005859375 0.109375)" xlink:href="#BitstreamVeraSans-Roman-61"/>
      <use transform="translate(192.28515625 0.109375)" xlink:href="#BitstreamVeraSans-Roman-63"/>
      <use transform="translate(247.265625 0.109375)" xlink:href="#BitstreamVeraSans-Roman-74"/>
      <use transform="translate(286.474609375 0.109375)" xlink:href="#BitstreamVeraSans-Roman-69"/>
      <use transform="translate(314.2578125 0.109375)" xlink:href="#BitstreamVeraSans-Roman-6f"/>
      <use transform="translate(375.439453125 0.109375)" xlink:href="#BitstreamVeraSans-Roman-6e"/>
      <use transform="translate(438.818359375 0.109375)" xlink:href="#BitstreamVeraSans-Roman-20"/>
      <use transform="translate(470.60546875 0.109375)" xlink:href="#BitstreamVeraSans-Roman-45"/>
      <use transform="translate(533.7890625 0.109375)" xlink:href="#BitstreamVeraSans-Roman-6e"/>
      <use transform="translate(597.16796875 0.109375)" xlink:href="#BitstreamVeraSans-Roman-73"/>
      <use transform="translate(649.267578125 0.109375)" xlink:href="#BitstreamVeraSans-Roman-65"/>
      <use transform="translate(710.791015625 0.109375)" xlink:href="#BitstreamVeraSans-Roman-6d"/>
      <use transform="translate(808.203125 0.109375)" xlink:href="#BitstreamVeraSans-Roman-62"/>
      <use transform="translate(871.6796875 0.109375)" xlink:href="#BitstreamVeraSans-Roman-6c"/>
      <use transform="translate(899.462890625 0.109375)" xlink:href="#BitstreamVeraSans-Roman-65"/>
      <use transform="translate(960.986328125 0.109375)" xlink:href="#BitstreamVeraSans-Roman-2c"/>
      <use transform="translate(992.7734375 0.109375)" xlink:href="#BitstreamVeraSans-Roman-20"/>
      <use transform="translate(1024.56054688 0.109375)" xlink:href="#Cmmi10-4b"/>
      <use transform="translate(1109.47265625 -16.896875)scale(0.7)" xlink:href="#Cmmi10-64"/>
      <use transform="translate(1145.87402344 -16.896875)scale(0.7)" xlink:href="#Cmmi10-69"/>
      <use transform="translate(1169.97070312 -16.896875)scale(0.7)" xlink:href="#Cmmi10-73"/>
      <use transform="translate(1202.71484375 -16.896875)scale(0.7)" xlink:href="#Cmmi10-73"/>
      <use transform="translate(1259.39492187 0.109375)" xlink:href="#Cmr10-3d"/>
      <use transform="translate(1354.6390625 0.109375)" xlink:href="#Cmr10-38"/>
      <use transform="translate(1404.6390625 0.109375)" xlink:href="#Cmmi10-3a"/>
      <use transform="translate(1449.88320312 0.109375)" xlink:href="#Cmr10-33"/>
      <use transform="translate(1517.44179687 0.109375)" xlink:href="#Cmsy10-a2"/>
      <use transform="translate(1562.6859375 0.109375)" xlink:href="#Cmr10-31"/>
      <use transform="translate(1612.6859375 0.109375)" xlink:href="#Cmr10-30"/>
      <use transform="translate(1667.15007812 38.3734375)scale(0.7)" xlink:href="#Cmsy10-a1"/>
      <use transform="translate(1721.52996094 38.3734375)scale(0.7)" xlink:href="#Cmr10-34"/>
     </g>
    </g>
    <g id="line2d_30">
     <path d="M 215.568 84.09375 
L 235.728 84.09375 
" style="fill:none;stroke:#e69f00;stroke-dasharray:1.000000,3.000000;stroke-dashoffset:0.0;stroke-width:2.0;"/>
    </g>
    <g id="line2d_31">
     <g>
      <use style="fill:#e69f00;stroke:#000000;stroke-linejoin:miter;stroke-width:0.5;" x="215.568" xlink:href="#m73d716eb49" y="84.09375"/>
      <use style="fill:#e69f00;stroke:#000000;stroke-linejoin:miter;stroke-width:0.5;" x="235.728" xlink:href="#m73d716eb49" y="84.09375"/>
     </g>
    </g>
    <g id="text_16">
     <!-- Constant pH, pH-p$K_a = 0$ -->
     <defs>
      <path d="M 17.390625 -1.125 
Q 11.078125 -1.125 7.4375 3.640625 
Q 3.8125 8.40625 3.8125 14.890625 
Q 3.8125 21.296875 7.125 28.171875 
Q 10.453125 35.0625 16.09375 39.625 
Q 21.734375 44.1875 28.21875 44.1875 
Q 31.203125 44.1875 33.546875 42.578125 
Q 35.890625 40.96875 37.203125 38.1875 
Q 38.328125 42.1875 41.609375 42.1875 
Q 42.875 42.1875 43.71875 41.421875 
Q 44.578125 40.671875 44.578125 39.40625 
Q 44.578125 39.109375 44.546875 38.953125 
Q 44.53125 38.8125 44.484375 38.625 
L 37.5 10.6875 
Q 36.8125 7.71875 36.8125 5.8125 
Q 36.8125 1.515625 39.703125 1.515625 
Q 42.828125 1.515625 44.453125 5.484375 
Q 46.09375 9.46875 47.21875 14.703125 
Q 47.40625 15.28125 48 15.28125 
L 49.21875 15.28125 
Q 49.609375 15.28125 49.84375 14.9375 
Q 50.09375 14.59375 50.09375 14.3125 
Q 48.34375 7.328125 46.265625 3.09375 
Q 44.1875 -1.125 39.5 -1.125 
Q 36.140625 -1.125 33.546875 0.84375 
Q 30.953125 2.828125 30.328125 6.109375 
Q 23.875 -1.125 17.390625 -1.125 
M 17.484375 1.515625 
Q 21.09375 1.515625 24.484375 4.21875 
Q 27.875 6.9375 30.328125 10.59375 
Q 30.421875 10.6875 30.421875 10.890625 
L 35.796875 32.625 
L 35.890625 32.90625 
Q 35.296875 36.46875 33.3125 39.03125 
Q 31.34375 41.609375 27.984375 41.609375 
Q 24.609375 41.609375 21.703125 38.84375 
Q 18.796875 36.078125 16.796875 32.328125 
Q 14.84375 28.328125 13.0625 21.34375 
Q 11.28125 14.359375 11.28125 10.5 
Q 11.28125 7.03125 12.765625 4.265625 
Q 14.265625 1.515625 17.484375 1.515625 
" id="Cmmi10-61"/>
      <path d="M 64.40625 67.28125 
L 64.40625 56.890625 
Q 59.421875 61.53125 53.78125 63.8125 
Q 48.140625 66.109375 41.796875 66.109375 
Q 29.296875 66.109375 22.65625 58.46875 
Q 16.015625 50.828125 16.015625 36.375 
Q 16.015625 21.96875 22.65625 14.328125 
Q 29.296875 6.6875 41.796875 6.6875 
Q 48.140625 6.6875 53.78125 8.984375 
Q 59.421875 11.28125 64.40625 15.921875 
L 64.40625 5.609375 
Q 59.234375 2.09375 53.4375 0.328125 
Q 47.65625 -1.421875 41.21875 -1.421875 
Q 24.65625 -1.421875 15.125 8.703125 
Q 5.609375 18.84375 5.609375 36.375 
Q 5.609375 53.953125 15.125 64.078125 
Q 24.65625 74.21875 41.21875 74.21875 
Q 47.75 74.21875 53.53125 72.484375 
Q 59.328125 70.75 64.40625 67.28125 
" id="BitstreamVeraSans-Roman-43"/>
      <path d="M 4.890625 31.390625 
L 31.203125 31.390625 
L 31.203125 23.390625 
L 4.890625 23.390625 
z
" id="BitstreamVeraSans-Roman-2d"/>
      <path d="M 18.109375 8.203125 
L 18.109375 -20.796875 
L 9.078125 -20.796875 
L 9.078125 54.6875 
L 18.109375 54.6875 
L 18.109375 46.390625 
Q 20.953125 51.265625 25.265625 53.625 
Q 29.59375 56 35.59375 56 
Q 45.5625 56 51.78125 48.09375 
Q 58.015625 40.1875 58.015625 27.296875 
Q 58.015625 14.40625 51.78125 6.484375 
Q 45.5625 -1.421875 35.59375 -1.421875 
Q 29.59375 -1.421875 25.265625 0.953125 
Q 20.953125 3.328125 18.109375 8.203125 
M 48.6875 27.296875 
Q 48.6875 37.203125 44.609375 42.84375 
Q 40.53125 48.484375 33.40625 48.484375 
Q 26.265625 48.484375 22.1875 42.84375 
Q 18.109375 37.203125 18.109375 27.296875 
Q 18.109375 17.390625 22.1875 11.75 
Q 26.265625 6.109375 33.40625 6.109375 
Q 40.53125 6.109375 44.609375 11.75 
Q 48.6875 17.390625 48.6875 27.296875 
" id="BitstreamVeraSans-Roman-70"/>
      <path d="M 9.8125 72.90625 
L 19.671875 72.90625 
L 19.671875 43.015625 
L 55.515625 43.015625 
L 55.515625 72.90625 
L 65.375 72.90625 
L 65.375 0 
L 55.515625 0 
L 55.515625 34.71875 
L 19.671875 34.71875 
L 19.671875 0 
L 9.8125 0 
z
" id="BitstreamVeraSans-Roman-48"/>
     </defs>
     <g transform="translate(251.568 89.13375)scale(0.144 -0.144)">
      <use transform="translate(0.0 0.78125)" xlink:href="#BitstreamVeraSans-Roman-43"/>
      <use transform="translate(69.82421875 0.78125)" xlink:href="#BitstreamVeraSans-Roman-6f"/>
      <use transform="translate(131.005859375 0.78125)" xlink:href="#BitstreamVeraSans-Roman-6e"/>
      <use transform="translate(194.384765625 0.78125)" xlink:href="#BitstreamVeraSans-Roman-73"/>
      <use transform="translate(246.484375 0.78125)" xlink:href="#BitstreamVeraSans-Roman-74"/>
      <use transform="translate(285.693359375 0.78125)" xlink:href="#BitstreamVeraSans-Roman-61"/>
      <use transform="translate(346.97265625 0.78125)" xlink:href="#BitstreamVeraSans-Roman-6e"/>
      <use transform="translate(410.3515625 0.78125)" xlink:href="#BitstreamVeraSans-Roman-74"/>
      <use transform="translate(449.560546875 0.78125)" xlink:href="#BitstreamVeraSans-Roman-20"/>
      <use transform="translate(481.34765625 0.78125)" xlink:href="#BitstreamVeraSans-Roman-70"/>
      <use transform="translate(544.82421875 0.78125)" xlink:href="#BitstreamVeraSans-Roman-48"/>
      <use transform="translate(620.01953125 0.78125)" xlink:href="#BitstreamVeraSans-Roman-2c"/>
      <use transform="translate(651.806640625 0.78125)" xlink:href="#BitstreamVeraSans-Roman-20"/>
      <use transform="translate(683.59375 0.78125)" xlink:href="#BitstreamVeraSans-Roman-70"/>
      <use transform="translate(747.0703125 0.78125)" xlink:href="#BitstreamVeraSans-Roman-48"/>
      <use transform="translate(822.265625 0.78125)" xlink:href="#BitstreamVeraSans-Roman-2d"/>
      <use transform="translate(858.349609375 0.78125)" xlink:href="#BitstreamVeraSans-Roman-70"/>
      <use transform="translate(921.826171875 0.78125)" xlink:href="#Cmmi10-4b"/>
      <use transform="translate(1006.73828125 -16.225)scale(0.7)" xlink:href="#Cmmi10-61"/>
      <use transform="translate(1067.62246094 0.78125)" xlink:href="#Cmr10-3d"/>
      <use transform="translate(1162.86660156 0.78125)" xlink:href="#Cmr10-30"/>
     </g>
    </g>
    <g id="line2d_32">
     <path d="M 215.568 105.2595 
L 235.728 105.2595 
" style="fill:none;stroke:#0000ff;stroke-linecap:square;"/>
    </g>
    <g id="line2d_33"/>
    <g id="text_17">
     <!-- dissociation law -->
     <defs>
      <path d="M 45.40625 46.390625 
L 45.40625 75.984375 
L 54.390625 75.984375 
L 54.390625 0 
L 45.40625 0 
L 45.40625 8.203125 
Q 42.578125 3.328125 38.25 0.953125 
Q 33.9375 -1.421875 27.875 -1.421875 
Q 17.96875 -1.421875 11.734375 6.484375 
Q 5.515625 14.40625 5.515625 27.296875 
Q 5.515625 40.1875 11.734375 48.09375 
Q 17.96875 56 27.875 56 
Q 33.9375 56 38.25 53.625 
Q 42.578125 51.265625 45.40625 46.390625 
M 14.796875 27.296875 
Q 14.796875 17.390625 18.875 11.75 
Q 22.953125 6.109375 30.078125 6.109375 
Q 37.203125 6.109375 41.296875 11.75 
Q 45.40625 17.390625 45.40625 27.296875 
Q 45.40625 37.203125 41.296875 42.84375 
Q 37.203125 48.484375 30.078125 48.484375 
Q 22.953125 48.484375 18.875 42.84375 
Q 14.796875 37.203125 14.796875 27.296875 
" id="BitstreamVeraSans-Roman-64"/>
      <path d="M 4.203125 54.6875 
L 13.1875 54.6875 
L 24.421875 12.015625 
L 35.59375 54.6875 
L 46.1875 54.6875 
L 57.421875 12.015625 
L 68.609375 54.6875 
L 77.59375 54.6875 
L 63.28125 0 
L 52.6875 0 
L 40.921875 44.828125 
L 29.109375 0 
L 18.5 0 
z
" id="BitstreamVeraSans-Roman-77"/>
     </defs>
     <g transform="translate(251.568 110.2995)scale(0.144 -0.144)">
      <use xlink:href="#BitstreamVeraSans-Roman-64"/>
      <use x="63.4765625" xlink:href="#BitstreamVeraSans-Roman-69"/>
      <use x="91.259765625" xlink:href="#BitstreamVeraSans-Roman-73"/>
      <use x="143.359375" xlink:href="#BitstreamVeraSans-Roman-73"/>
      <use x="195.458984375" xlink:href="#BitstreamVeraSans-Roman-6f"/>
      <use x="256.640625" xlink:href="#BitstreamVeraSans-Roman-63"/>
      <use x="311.62109375" xlink:href="#BitstreamVeraSans-Roman-69"/>
      <use x="339.404296875" xlink:href="#BitstreamVeraSans-Roman-61"/>
      <use x="400.68359375" xlink:href="#BitstreamVeraSans-Roman-74"/>
      <use x="439.892578125" xlink:href="#BitstreamVeraSans-Roman-69"/>
      <use x="467.67578125" xlink:href="#BitstreamVeraSans-Roman-6f"/>
      <use x="528.857421875" xlink:href="#BitstreamVeraSans-Roman-6e"/>
      <use x="592.236328125" xlink:href="#BitstreamVeraSans-Roman-20"/>
      <use x="624.0234375" xlink:href="#BitstreamVeraSans-Roman-6c"/>
      <use x="651.806640625" xlink:href="#BitstreamVeraSans-Roman-61"/>
      <use x="713.0859375" xlink:href="#BitstreamVeraSans-Roman-77"/>
     </g>
    </g>
   </g>
  </g>
 </g>
 <defs>
  <clipPath id="p7ef08beaac">
   <rect height="345.6" width="446.4" x="72.0" y="43.2"/>
  </clipPath>
 </defs>
</svg>
